<mxfile host="app.diagrams.net" modified="2024-05-02T08:22:57.340Z" agent="Mozilla/5.0 (Windows NT 10.0; Win64; x64) AppleWebKit/537.36 (KHTML, like Gecko) Chrome/124.0.0.0 Safari/537.36" etag="zUkMCqeuXFzCfVbvPY-f" version="24.3.1" type="device">
  <diagram name="Page-1" id="DwUia8koJ6FRPaUyvYDs">
    <mxGraphModel dx="1984" dy="656" grid="1" gridSize="10" guides="1" tooltips="1" connect="1" arrows="1" fold="1" page="1" pageScale="1" pageWidth="850" pageHeight="1100" math="0" shadow="0">
      <root>
        <mxCell id="0" />
        <mxCell id="1" parent="0" />
        <mxCell id="HbFCfK-qerjDNlyoIxfr-1" value="" style="rounded=0;whiteSpace=wrap;html=1;labelBackgroundColor=#81AAE6;labelBorderColor=default;textShadow=0;fillColor=#dae8fc;strokeColor=#6c8ebf;" vertex="1" parent="1">
          <mxGeometry width="1090" height="460" as="geometry" />
        </mxCell>
        <mxCell id="HbFCfK-qerjDNlyoIxfr-3" value="&lt;font style=&quot;font-size: 20px;&quot;&gt;UoM Network&lt;/font&gt;" style="text;html=1;align=center;verticalAlign=middle;whiteSpace=wrap;rounded=0;" vertex="1" parent="1">
          <mxGeometry x="10" y="10" width="140" height="30" as="geometry" />
        </mxCell>
        <mxCell id="HbFCfK-qerjDNlyoIxfr-5" value="" style="html=1;whiteSpace=wrap;fillColor=#ffe6cc;strokeColor=#d79b00;" vertex="1" parent="1">
          <mxGeometry x="10" y="80" width="170" height="330" as="geometry" />
        </mxCell>
        <mxCell id="HbFCfK-qerjDNlyoIxfr-7" value="&lt;font style=&quot;font-size: 20px;&quot;&gt;Client Device&lt;/font&gt;" style="text;html=1;align=center;verticalAlign=middle;whiteSpace=wrap;rounded=0;" vertex="1" parent="1">
          <mxGeometry x="20" y="90" width="150" height="30" as="geometry" />
        </mxCell>
        <mxCell id="HbFCfK-qerjDNlyoIxfr-8" value="" style="rounded=0;whiteSpace=wrap;html=1;fillColor=#d5e8d4;strokeColor=#82b366;" vertex="1" parent="1">
          <mxGeometry x="470" y="20" width="610" height="420" as="geometry" />
        </mxCell>
        <mxCell id="HbFCfK-qerjDNlyoIxfr-9" value="&lt;font style=&quot;font-size: 20px;&quot;&gt;MRC Cloud&lt;/font&gt;" style="text;html=1;align=center;verticalAlign=middle;whiteSpace=wrap;rounded=0;" vertex="1" parent="1">
          <mxGeometry x="480" y="30" width="120" height="30" as="geometry" />
        </mxCell>
        <mxCell id="HbFCfK-qerjDNlyoIxfr-11" value="&lt;font style=&quot;font-size: 15px;&quot;&gt;SSH Tunnel&lt;/font&gt;" style="text;html=1;align=center;verticalAlign=middle;whiteSpace=wrap;rounded=0;" vertex="1" parent="1">
          <mxGeometry x="210" y="160" width="110" height="30" as="geometry" />
        </mxCell>
        <mxCell id="HbFCfK-qerjDNlyoIxfr-12" value="" style="rounded=0;whiteSpace=wrap;html=1;fillColor=#f8cecc;strokeColor=#b85450;" vertex="1" parent="1">
          <mxGeometry x="485" y="90" width="120" height="135" as="geometry" />
        </mxCell>
        <mxCell id="HbFCfK-qerjDNlyoIxfr-14" value="&lt;font style=&quot;font-size: 20px;&quot;&gt;Bation Node&lt;/font&gt;" style="text;html=1;align=center;verticalAlign=middle;whiteSpace=wrap;rounded=0;" vertex="1" parent="1">
          <mxGeometry x="500" y="120" width="90" height="80" as="geometry" />
        </mxCell>
        <mxCell id="HbFCfK-qerjDNlyoIxfr-17" style="edgeStyle=orthogonalEdgeStyle;rounded=0;orthogonalLoop=1;jettySize=auto;html=1;entryX=0;entryY=0.5;entryDx=0;entryDy=0;strokeWidth=5;" edge="1" parent="1" source="HbFCfK-qerjDNlyoIxfr-15" target="HbFCfK-qerjDNlyoIxfr-14">
          <mxGeometry relative="1" as="geometry" />
        </mxCell>
        <mxCell id="HbFCfK-qerjDNlyoIxfr-15" value="&lt;font style=&quot;font-size: 15px;&quot;&gt;Terminal 1&lt;/font&gt;" style="rounded=1;whiteSpace=wrap;html=1;" vertex="1" parent="1">
          <mxGeometry x="35" y="165" width="120" height="60" as="geometry" />
        </mxCell>
        <mxCell id="HbFCfK-qerjDNlyoIxfr-18" style="edgeStyle=orthogonalEdgeStyle;rounded=0;orthogonalLoop=1;jettySize=auto;html=1;" edge="1" parent="1" source="HbFCfK-qerjDNlyoIxfr-16">
          <mxGeometry relative="1" as="geometry">
            <mxPoint x="300" y="200" as="targetPoint" />
          </mxGeometry>
        </mxCell>
        <mxCell id="HbFCfK-qerjDNlyoIxfr-16" value="&lt;font style=&quot;font-size: 15px;&quot;&gt;Terminal 2&lt;/font&gt;" style="rounded=1;whiteSpace=wrap;html=1;" vertex="1" parent="1">
          <mxGeometry x="35" y="260" width="120" height="60" as="geometry" />
        </mxCell>
        <mxCell id="HbFCfK-qerjDNlyoIxfr-19" value="&lt;font style=&quot;font-size: 15px;&quot;&gt;Request&lt;/font&gt;" style="text;html=1;align=center;verticalAlign=middle;whiteSpace=wrap;rounded=0;" vertex="1" parent="1">
          <mxGeometry x="210" y="260" width="60" height="30" as="geometry" />
        </mxCell>
        <mxCell id="HbFCfK-qerjDNlyoIxfr-21" value="" style="rounded=0;whiteSpace=wrap;html=1;fillColor=#60a917;fontColor=#ffffff;strokeColor=#2D7600;" vertex="1" parent="1">
          <mxGeometry x="750" y="30" width="320" height="400" as="geometry" />
        </mxCell>
        <mxCell id="HbFCfK-qerjDNlyoIxfr-22" value="&lt;font style=&quot;font-size: 20px;&quot;&gt;K8s Cluster&lt;/font&gt;" style="text;html=1;align=center;verticalAlign=middle;whiteSpace=wrap;rounded=0;" vertex="1" parent="1">
          <mxGeometry x="760" y="40" width="120" height="30" as="geometry" />
        </mxCell>
        <mxCell id="HbFCfK-qerjDNlyoIxfr-37" style="edgeStyle=orthogonalEdgeStyle;rounded=0;orthogonalLoop=1;jettySize=auto;html=1;entryX=1;entryY=0.5;entryDx=0;entryDy=0;shape=link;strokeWidth=4;" edge="1" parent="1" source="HbFCfK-qerjDNlyoIxfr-25" target="HbFCfK-qerjDNlyoIxfr-12">
          <mxGeometry relative="1" as="geometry" />
        </mxCell>
        <mxCell id="HbFCfK-qerjDNlyoIxfr-25" value="" style="rounded=1;whiteSpace=wrap;html=1;" vertex="1" parent="1">
          <mxGeometry x="850" y="90" width="120" height="60" as="geometry" />
        </mxCell>
        <mxCell id="HbFCfK-qerjDNlyoIxfr-26" value="" style="rounded=1;whiteSpace=wrap;html=1;" vertex="1" parent="1">
          <mxGeometry x="850" y="170" width="120" height="60" as="geometry" />
        </mxCell>
        <mxCell id="HbFCfK-qerjDNlyoIxfr-27" value="" style="rounded=1;whiteSpace=wrap;html=1;" vertex="1" parent="1">
          <mxGeometry x="850" y="245" width="120" height="60" as="geometry" />
        </mxCell>
        <mxCell id="HbFCfK-qerjDNlyoIxfr-28" value="" style="rounded=1;whiteSpace=wrap;html=1;" vertex="1" parent="1">
          <mxGeometry x="850" y="330" width="120" height="60" as="geometry" />
        </mxCell>
        <mxCell id="HbFCfK-qerjDNlyoIxfr-29" value="&lt;font style=&quot;font-size: 15px;&quot;&gt;Master Node&lt;/font&gt;" style="text;html=1;align=center;verticalAlign=middle;whiteSpace=wrap;rounded=0;" vertex="1" parent="1">
          <mxGeometry x="880" y="105" width="60" height="30" as="geometry" />
        </mxCell>
        <mxCell id="HbFCfK-qerjDNlyoIxfr-30" value="&lt;font style=&quot;font-size: 15px;&quot;&gt;Worker Node 1&lt;/font&gt;" style="text;html=1;align=center;verticalAlign=middle;whiteSpace=wrap;rounded=0;" vertex="1" parent="1">
          <mxGeometry x="880" y="185" width="60" height="30" as="geometry" />
        </mxCell>
        <mxCell id="HbFCfK-qerjDNlyoIxfr-31" value="&lt;font style=&quot;font-size: 15px;&quot;&gt;Worker Node 2&lt;/font&gt;" style="text;html=1;align=center;verticalAlign=middle;whiteSpace=wrap;rounded=0;" vertex="1" parent="1">
          <mxGeometry x="880" y="260" width="60" height="30" as="geometry" />
        </mxCell>
        <mxCell id="HbFCfK-qerjDNlyoIxfr-32" value="&lt;font style=&quot;font-size: 15px;&quot;&gt;Worker Node 3&lt;/font&gt;" style="text;html=1;align=center;verticalAlign=middle;whiteSpace=wrap;rounded=0;" vertex="1" parent="1">
          <mxGeometry x="880" y="345" width="60" height="30" as="geometry" />
        </mxCell>
        <mxCell id="HbFCfK-qerjDNlyoIxfr-38" value="&lt;font style=&quot;font-size: 15px;&quot;&gt;Request&lt;/font&gt;" style="text;html=1;align=center;verticalAlign=middle;whiteSpace=wrap;rounded=0;" vertex="1" parent="1">
          <mxGeometry x="640" y="120" width="60" height="30" as="geometry" />
        </mxCell>
        <mxCell id="HbFCfK-qerjDNlyoIxfr-54" value="Actor" style="shape=umlActor;verticalLabelPosition=bottom;verticalAlign=top;html=1;" vertex="1" parent="1">
          <mxGeometry x="-180" y="155" width="90" height="150" as="geometry" />
        </mxCell>
        <mxCell id="HbFCfK-qerjDNlyoIxfr-60" style="edgeStyle=orthogonalEdgeStyle;rounded=0;orthogonalLoop=1;jettySize=auto;html=1;entryX=0.002;entryY=0.451;entryDx=0;entryDy=0;entryPerimeter=0;strokeWidth=3;" edge="1" parent="1" source="HbFCfK-qerjDNlyoIxfr-54" target="HbFCfK-qerjDNlyoIxfr-5">
          <mxGeometry relative="1" as="geometry" />
        </mxCell>
      </root>
    </mxGraphModel>
  </diagram>
</mxfile>
